<?xml version="1.0" standalone="no"?>
<!DOCTYPE svg PUBLIC "-//W3C//DTD SVG 1.1//EN" "http://www.w3.org/Graphics/SVG/1.1/DTD/svg11.dtd" >
<svg xmlns="http://www.w3.org/2000/svg" xmlns:xlink="http://www.w3.org/1999/xlink" version="1.1">
<metadata>
Created by FontForge 20160407 at Wed Aug 17 07:57:24 2016
 By Jimmy Warting
251 Dutch Design: AlbertJan Pool, 1995. Published by FontShop International FontFont release 15
</metadata>
<defs>
<font id="DINbekMedium" horiz-adv-x="533" >
  <font-face 
    font-family="DINbek Medium"
    font-weight="400"
    font-stretch="normal"
    units-per-em="1000"
    panose-1="0 0 4 0 0 0 0 0 0 0"
    ascent="800"
    descent="-200"
    x-height="507"
    cap-height="712"
    bbox="-41 -211 1138 1000"
    underline-thickness="70"
    underline-position="-172"
    unicode-range="U+0020-25CA"
  />
<missing-glyph horiz-adv-x="500" 
d="M63 0v1000h375v-1000h-375zM125 63h250v875h-250v-875z" />
    <glyph glyph-name=".notdef" horiz-adv-x="500" 
d="M63 0v1000h375v-1000h-375zM125 63h250v875h-250v-875z" />
    <glyph glyph-name="NULL" horiz-adv-x="0" 
 />
    <glyph glyph-name="nonmarkingreturn" horiz-adv-x="240" 
 />
    <glyph glyph-name="space" unicode=" " horiz-adv-x="240" 
 />
    <glyph glyph-name="exclam" unicode="!" horiz-adv-x="332" 
d="M245 712l-22 -500h-80l-22 500h124zM239 0h-112v109h112v-109z" />
    <glyph glyph-name="quotedbl" unicode="&#x22;" horiz-adv-x="444" 
d="M366 521h-101v191h101v-191zM179 521h-101v191h101v-191z" />
    <glyph glyph-name="numbersign" unicode="#" horiz-adv-x="672" 
d="M623 426h-92l-20 -124h79v-94h-94l-33 -208h-106l33 208h-137l-32 -208h-107l33 208h-79v94h94l20 124h-81v94h95l31 196h107l-31 -196h136l31 196h106l-31 -196h78v-94zM424 426h-136l-20 -124h137z" />
    <glyph glyph-name="dollar" unicode="$" horiz-adv-x="608" 
d="M556 203q0 -92 -64 -147q-57 -50 -152 -59v-111h-82v108q-136 0 -228 94l72 71q68 -68 165 -68v222l-26 3q-86 10 -135 58q-52 51 -52 135q0 90 58 145q54 52 146 62v90h82v-89q107 0 191 -80l-69 -68q-58 54 -131 54v-216l34 -4q191 -22 191 -200zM267 414v208
q-48 -4 -78 -33t-30 -76q0 -81 108 -99zM449 200q0 54 -34 78q-24 17 -84 27v-212q118 11 118 107z" />
    <glyph glyph-name="percent" unicode="%" horiz-adv-x="842" 
d="M784 130q0 -62 -39 -99.5t-101 -37.5t-101 37.5t-39 99.5v101q0 62 39 99.5t101 37.5t101 -37.5t39 -99.5v-101zM629 712l-335 -712h-82l336 712h81zM338 481q0 -62 -39 -99t-101 -37q-61 0 -100.5 37.5t-39.5 98.5v101q0 62 39 99.5t101 37.5t101 -37.5t39 -99.5v-101z
M707 133v95q0 72 -63 72t-63 -72v-95q0 -72 63 -72t63 72zM261 484v95q0 72 -63 72t-63 -72v-95q0 -71 63 -71t63 71z" />
    <glyph glyph-name="ampersand" unicode="&#x26;" horiz-adv-x="730" 
d="M684 0h-131l-58 70q-88 -76 -197 -76q-104 0 -165 53q-65 56 -65 159q0 66 43 118q31 39 98 83q-74 86 -74 153q0 72 52 116q49 42 122 42q72 0 120.5 -44t48.5 -115q0 -73 -76 -126l-52 -36l150 -179q38 55 38 143h98q0 -136 -71 -219zM380 558q0 31 -20 51t-51 20
q-32 0 -51 -19t-19 -51q0 -33 55 -98l34 23q52 35 52 74zM434 142l-169 201q-47 -32 -67 -56q-29 -35 -29 -79q0 -54 37 -87.5t92 -33.5q74 0 136 55z" />
    <glyph glyph-name="quotesingle" unicode="'" horiz-adv-x="257" 
d="M179 521h-101v191h101v-191z" />
    <glyph glyph-name="parenleft" unicode="(" horiz-adv-x="317" 
d="M259 -25l-69 -69l-45 46q-59 60 -59 165v478q0 76 23 116q17 29 81 95l69 -69l-31 -31q-40 -40 -40 -117v-466q0 -52 15 -82q12 -24 56 -66z" />
    <glyph glyph-name="parenright" unicode=")" horiz-adv-x="317" 
d="M232 117q0 -71 -24 -116q-17 -32 -80 -95l-70 70l31 31q39 47 39 116v466q0 51 -16 82q-13 26 -54 65l70 70l44 -46q60 -63 60 -165v-478z" />
    <glyph glyph-name="asterisk" unicode="*" horiz-adv-x="485" 
d="M424 466l-37 -65l-111 69l4 -131h-75l4 131l-111 -69l-37 65l115 61l-115 62l37 65l111 -69l-4 130h75l-4 -130l111 69l37 -65l-115 -62z" />
    <glyph glyph-name="plus" unicode="+" 
d="M482 225h-168v-168h-95v168h-168v95h168v167h95v-167h168v-95z" />
    <glyph glyph-name="comma" unicode="," horiz-adv-x="272" 
d="M194 -60l-116 -95v271h116v-176z" />
    <glyph glyph-name="hyphen" unicode="&#x2010;" horiz-adv-x="426" 
d="M359 230h-292v95h292v-95z" />
    <glyph glyph-name="period" unicode="." horiz-adv-x="278" 
d="M200 0h-122v122h122v-122z" />
    <glyph glyph-name="slash" unicode="/" horiz-adv-x="380" 
d="M383 786l-285 -860h-98l285 860h98z" />
    <glyph glyph-name="zero" unicode="0" 
d="M472 198q0 -91 -57.5 -147.5t-148.5 -56.5q-90 0 -147.5 57t-57.5 147v316q0 91 57 147.5t148 56.5q90 0 148 -57t58 -147v-316zM370 201v310q0 51 -27 83.5t-77 32.5q-51 0 -77 -32t-26 -84v-310q0 -52 26 -84t77 -32q49 0 78 34q26 32 26 82z" />
    <glyph glyph-name="one" unicode="1" 
d="M355 0h-102v601l-139 -122v113l139 120h102v-712z" />
    <glyph glyph-name="two" unicode="2" 
d="M477 0h-414v91l274 333q38 46 38 95t-27.5 78.5t-76.5 29.5q-50 0 -77.5 -29.5t-27.5 -80.5h-102q0 91 57.5 146t149.5 55t149 -54t57 -146q0 -46 -18 -83q-13 -27 -49 -71l-223 -273h290v-91z" />
    <glyph glyph-name="three" unicode="3" 
d="M478 200q0 -122 -95 -177q-52 -30 -123 -30q-95 0 -155 52q-63 54 -63 148h102q0 -50 32.5 -79t83.5 -29q53 0 84.5 32.5t31.5 85.5q0 117 -119 117h-17v89h17q108 0 108 108q0 48 -28.5 79t-76.5 31q-94 0 -107 -102h-102q0 87 62 141q59 53 147 53q90 0 148.5 -54.5
t58.5 -144.5q0 -107 -89 -152q100 -44 100 -168z" />
    <glyph glyph-name="four" unicode="4" 
d="M498 107h-76v-107h-99v107h-288v95l251 510h110l-250 -510h177v166h99v-166h76v-95z" />
    <glyph glyph-name="five" unicode="5" 
d="M479 238q0 -245 -210 -245q-141 0 -191 114q-15 34 -15 77h102q12 -99 104 -99q108 0 108 153q0 149 -104 149q-80 0 -101 -64h-93v389h384v-91h-292v-188q39 41 118 41q190 0 190 -236z" />
    <glyph glyph-name="six" unicode="6" 
d="M477 211q0 -97 -56.5 -157t-153.5 -60q-96 0 -153.5 58.5t-57.5 154.5q0 67 53 175l162 330h109l-153 -306q27 11 63 11q84 0 137 -62q50 -58 50 -144zM375 209q0 52 -29 87.5t-80 35.5q-53 0 -80.5 -34.5t-27.5 -88.5q0 -53 27 -87q29 -37 81 -37t82 37q27 33 27 87z
" />
    <glyph glyph-name="seven" unicode="7" 
d="M487 621l-238 -621h-110l239 621h-217v-112h-98v203h424v-91z" />
    <glyph glyph-name="eight" unicode="8" 
d="M486 201q0 -92 -63.5 -149.5t-156.5 -57.5q-95 0 -157 56.5t-62 150.5q0 108 98 167q-86 51 -86 153q0 88 59 142.5t148 54.5q90 0 149 -53.5t59 -143.5q0 -101 -86 -153q98 -59 98 -167zM372 518q0 46 -30 77.5t-76 31.5q-47 0 -76 -31t-29 -78t29 -77.5t76 -30.5
q46 0 76 31t30 77zM383 203q0 50 -33.5 84.5t-83.5 34.5q-49 0 -83 -35t-34 -84q0 -50 33.5 -84t83.5 -34q49 0 83 34.5t34 83.5z" />
    <glyph glyph-name="nine" unicode="9" 
d="M477 505q0 -67 -53 -175l-162 -330h-109l153 306q-27 -11 -64 -11q-84 0 -136 62q-50 59 -50 144q0 97 57 157t153 60t153.5 -58.5t57.5 -154.5zM375 503q0 52 -29 88t-80 36q-52 0 -80 -35.5t-28 -88.5t27 -86q30 -37 81 -37q53 0 82 36q27 33 27 87z" />
    <glyph glyph-name="colon" unicode=":" horiz-adv-x="303" 
d="M225 285h-121v122h121v-122zM225 0h-121v122h121v-122z" />
    <glyph glyph-name="semicolon" unicode=";" horiz-adv-x="303" 
d="M225 285h-121v122h121v-122zM222 -60l-116 -95v271h116v-176z" />
    <glyph glyph-name="less" unicode="&#x3c;" horiz-adv-x="1027" 
d="M974 229h-744l345 -343h-131l-392 391l392 392h131l-345 -343h744v-97z" />
    <glyph glyph-name="equal" unicode="=" 
d="M482 327h-431v95h431v-95zM482 133h-431v95h431v-95z" />
    <glyph glyph-name="greater" unicode="&#x3e;" horiz-adv-x="1027" 
d="M975 277l-392 -391h-131l345 343h-745v97h745l-345 343h131z" />
    <glyph glyph-name="question" unicode="?" horiz-adv-x="511" 
d="M470 527q0 -56 -48 -123l-77 -108q-18 -25 -18 -54v-30h-102v35q0 53 34 99l78 105q31 42 31 76q0 43 -27.5 71.5t-70.5 28.5t-70 -29t-27 -72h-102q0 85 56.5 138.5t142.5 53.5t143 -52.5t57 -138.5zM332 0h-113v109h113v-109z" />
    <glyph glyph-name="at" unicode="@" horiz-adv-x="736" 
d="M672 -2l-96 2v50q-48 -57 -127 -57q-68 0 -113 38.5t-57 104.5q-6 34 -6 98q0 110 32 166q42 75 143 75q79 0 126 -56v61q0 145 -143 145h-126q-142 0 -142 -145v-312q0 -40 10 -63t40 -47l-70 -70q-45 35 -63 77q-16 38 -16 98v318q0 234 231 234h146q113 0 172 -60.5
t59 -173.5v-483zM574 234q0 155 -102 155q-61 0 -85 -51q-16 -35 -16 -104q0 -154 101 -154q102 0 102 154z" />
    <glyph glyph-name="A" unicode="A" horiz-adv-x="625" 
d="M617 0h-115l-49 143h-281l-49 -143h-115l261 712h87zM423 235l-108 316l-111 -316h219z" />
    <glyph glyph-name="B" unicode="B" horiz-adv-x="663" 
d="M596 201q0 -96 -59 -148.5t-156 -52.5h-288v712h277q96 0 155.5 -50t59.5 -145q0 -108 -96 -151q107 -42 107 -165zM477 513q0 49 -34 77q-31 25 -82 25h-160v-204h160q116 0 116 102zM488 206q0 52 -32 80t-85 28h-170v-217h170q52 0 84.5 28.5t32.5 80.5z" />
    <glyph glyph-name="C" unicode="C" horiz-adv-x="628" 
d="M577 213q-18 -101 -85 -160t-169 -59q-112 0 -187 76q-48 48 -61 118q-8 43 -8 168t8 168q13 70 61 118q76 76 187 76q103 0 169 -58.5t85 -160.5h-110q-29 122 -144 122q-126 0 -145 -149q-3 -24 -3 -116q0 -90 3 -116q17 -149 145 -149q115 0 145 122h109z" />
    <glyph glyph-name="D" unicode="D" horiz-adv-x="666" 
d="M599 361q0 -113 -7 -157q-16 -100 -81 -152t-168 -52h-250v712h250q101 0 166.5 -50.5t82.5 -148.5q7 -40 7 -152zM491 361v64q0 42 -5 60q-17 130 -154 130h-131v-518h131q77 0 121 48q28 30 34 98q4 42 4 118z" />
    <glyph glyph-name="E" unicode="E" horiz-adv-x="603" 
d="M548 0h-455v712h455v-97h-347v-208h296v-96h-296v-214h347v-97z" />
    <glyph glyph-name="F" unicode="F" horiz-adv-x="585" 
d="M548 615h-347v-217h296v-97h-296v-301h-108v712h455v-97z" />
    <glyph glyph-name="G" unicode="G" horiz-adv-x="649" 
d="M583 276q0 -127 -65 -202q-69 -80 -195 -80q-112 0 -187 76q-48 48 -61 118q-8 43 -8 168t8 168q13 70 61 118q76 76 187 76q104 0 172 -59t87 -162h-109q-29 124 -150 124q-126 0 -145 -149q-3 -24 -3 -116q0 -90 3 -116q17 -149 145 -149q72 0 113 46q39 43 39 116v40
h-152v92h260v-109z" />
    <glyph glyph-name="H" unicode="H" horiz-adv-x="691" 
d="M598 0h-108v311h-289v-311h-108v712h108v-304h289v304h108v-712z" />
    <glyph glyph-name="I" unicode="I" horiz-adv-x="294" 
d="M201 0h-108v712h108v-712z" />
    <glyph glyph-name="J" unicode="J" horiz-adv-x="506" 
d="M423 225q0 -105 -66 -168t-171 -63q-102 0 -173 69l72 71q43 -43 101 -43q63 0 96 39t33 103v479h108v-487z" />
    <glyph glyph-name="K" unicode="K" horiz-adv-x="658" 
d="M648 0h-127l-200 351l-120 -144v-207h-108v712h108v-358l291 358h132l-231 -279z" />
    <glyph glyph-name="L" unicode="L" horiz-adv-x="574" 
d="M544 0h-451v712h108v-615h343v-97z" />
    <glyph glyph-name="M" unicode="M" horiz-adv-x="813" 
d="M721 0h-108v476l-164 -347h-80l-168 347v-476h-108v712h108l208 -443l204 443h108v-712z" />
    <glyph glyph-name="N" unicode="N" horiz-adv-x="722" 
d="M629 0h-99l-329 501v-501h-108v712h99l329 -500v500h108v-712z" />
    <glyph glyph-name="O" unicode="O" horiz-adv-x="646" 
d="M579 356q0 -125 -8 -168q-13 -70 -60 -118q-74 -76 -188 -76q-112 0 -187 76q-48 48 -61 118q-8 43 -8 168t8 168q13 70 61 118q76 76 187 76t188 -76q48 -47 60 -118q8 -47 8 -168zM471 356v63q0 36 -3 53q-13 149 -145 149q-128 0 -145 -149q-3 -26 -3 -116
q0 -97 2 -116q16 -149 146 -149t145 149q3 30 3 116z" />
    <glyph glyph-name="P" unicode="P" horiz-adv-x="629" 
d="M591 496q0 -97 -65 -156.5t-163 -59.5h-162v-280h-108v712h270q100 0 163 -57q65 -60 65 -159zM483 496q0 56 -34.5 87.5t-91.5 31.5h-156v-237h156q57 0 91.5 31t34.5 87z" />
    <glyph glyph-name="Q" unicode="Q" horiz-adv-x="646" 
d="M603 28l-60 -60l-71 71q-63 -45 -149 -45q-112 0 -187 76q-48 48 -61 118q-8 43 -8 168t8 168q13 70 61 118q76 76 187 76t188 -76q48 -47 60 -118q8 -47 8 -168v-91q0 -42 -5 -60q-9 -66 -41 -108zM471 356v63q0 36 -3 53q-13 149 -145 149q-128 0 -145 -149
q-3 -26 -3 -116q0 -97 2 -116q16 -149 146 -149q41 0 73 23l-75 75l60 60l69 -69q21 42 21 176z" />
    <glyph glyph-name="R" unicode="R" horiz-adv-x="655" 
d="M612 0h-126l-150 300h-135v-300h-108v712h276q97 0 159 -56t62 -152q0 -70 -37.5 -120t-104.5 -69zM482 503q0 53 -33.5 82.5t-87.5 29.5h-160v-223h160q54 0 87.5 29t33.5 82z" />
    <glyph glyph-name="S" unicode="S" horiz-adv-x="590" 
d="M538 203q0 -103 -79 -159q-70 -50 -177 -50q-159 0 -252 94l72 71q68 -68 182 -68q147 0 147 109q0 89 -106 104l-84 12q-187 27 -187 193q0 101 70 157q64 52 168 52q132 0 221 -81l-69 -68q-58 55 -155 55q-56 0 -91 -27q-39 -30 -39 -84q0 -83 107 -99l81 -12
q191 -28 191 -199z" />
    <glyph glyph-name="T" unicode="T" horiz-adv-x="560" 
d="M530 615h-196v-615h-108v615h-196v97h500v-97z" />
    <glyph glyph-name="U" unicode="U" horiz-adv-x="675" 
d="M593 240q0 -110 -73 -178t-183 -68q-111 0 -183 67.5t-72 178.5v472h108v-467q0 -70 39 -112t108 -42q68 0 108 42.5t40 111.5v467h108v-472z" />
    <glyph glyph-name="V" unicode="V" horiz-adv-x="564" 
d="M559 712l-236 -712h-84l-234 712h112l164 -518l164 518h114z" />
    <glyph glyph-name="W" unicode="W" horiz-adv-x="871" 
d="M860 712l-186 -712h-94l-145 499l-144 -499h-94l-186 712h114l124 -509l143 509h87l143 -509l124 509h114z" />
    <glyph glyph-name="X" unicode="X" horiz-adv-x="578" 
d="M568 0h-125l-155 273l-154 -273h-124l220 365l-206 347h124l140 -255l141 255h124l-206 -347z" />
    <glyph glyph-name="Y" unicode="Y" horiz-adv-x="544" 
d="M539 712l-213 -419v-293h-108v293l-213 419h118l149 -313l149 313h118z" />
    <glyph glyph-name="Z" unicode="Z" horiz-adv-x="552" 
d="M504 0h-456v93l329 522h-315v97h442v-88l-331 -527h331v-97z" />
    <glyph glyph-name="bracketleft" unicode="[" horiz-adv-x="347" 
d="M304 -74h-218v860h218v-91h-116v-678h116v-91z" />
    <glyph glyph-name="backslash" unicode="\" horiz-adv-x="380" 
d="M380 -74h-98l-282 852h98z" />
    <glyph glyph-name="bracketright" unicode="]" horiz-adv-x="347" 
d="M261 -74h-218v90h118v680h-118v90h218v-860z" />
    <glyph glyph-name="asciicircum" unicode="^" horiz-adv-x="571" 
d="M503 401h-106l-112 207l-112 -207h-106l172 318h93z" />
    <glyph glyph-name="underscore" unicode="_" horiz-adv-x="571" 
d="M571 -172h-571v70h571v-70z" />
    <glyph glyph-name="grave" unicode="`" horiz-adv-x="500" 
d="M302 599h-77l-111 162h113z" />
    <glyph glyph-name="a" unicode="a" horiz-adv-x="530" 
d="M454 0h-100v46q-52 -52 -135 -52q-80 0 -126 37q-50 40 -50 118q0 72 53 111q47 35 122 35h134v36q0 95 -111 95q-72 0 -111 -49l-67 63q62 73 182 73q209 0 209 -174v-339zM352 183v41h-119q-91 0 -91 -73q0 -72 93 -72q60 0 88.5 23t28.5 81z" />
    <glyph glyph-name="b" unicode="b" horiz-adv-x="553" 
d="M496 254q0 -119 -32 -179q-43 -81 -149 -81q-83 0 -134 60v-54h-100v712h102v-256q48 57 133 57q106 0 148 -82q32 -61 32 -177zM394 254q0 75 -16 113q-23 55 -89 55q-65 0 -90 -56q-16 -37 -16 -112q0 -169 106 -169q65 0 89 56q16 37 16 113z" />
    <glyph glyph-name="c" unicode="c" horiz-adv-x="485" 
d="M448 66q-68 -72 -167 -72q-111 0 -171 76q-55 70 -55 184q0 116 55 184q59 75 171 75q99 0 167 -71l-70 -68q-44 48 -97 48q-124 0 -124 -168q0 -169 124 -169q52 0 97 48z" />
    <glyph glyph-name="d" unicode="d" horiz-adv-x="553" 
d="M472 0h-100v54q-50 -60 -134 -60q-107 0 -149 81q-32 60 -32 179q0 118 32 178q43 81 148 81q83 0 133 -57v256h102v-712zM370 254q0 75 -16 113q-23 55 -89 55q-65 0 -90 -56q-16 -37 -16 -112q0 -169 106 -169q65 0 89 56q16 37 16 113z" />
    <glyph glyph-name="e" unicode="e" horiz-adv-x="539" 
d="M485 224h-329q0 -64 33 -103t96 -39q71 0 123 52l65 -61q-79 -79 -190 -79q-228 0 -228 260q0 112 50 181q56 78 165 78q103 0 161 -72q54 -66 54 -172v-45zM384 295q0 38 -14 69q-29 64 -100 64q-56 0 -87 -39q-27 -36 -27 -94h228z" />
    <glyph glyph-name="f" unicode="f" horiz-adv-x="328" 
d="M300 420h-101v-420h-102v420h-58v78h58v78q0 64 37.5 102.5t101.5 38.5h64v-87h-45q-56 0 -56 -59v-73h101v-78z" />
    <glyph glyph-name="g" unicode="g" horiz-adv-x="549" 
d="M468 3q0 -98 -59.5 -156t-157.5 -58q-106 0 -179 67l65 65q48 -45 110 -45q119 0 119 129v65q-49 -58 -131 -58q-178 0 -178 251q0 113 32 172q43 78 147 78q82 0 133 -60v54h99v-504zM366 263q0 71 -16 107q-23 52 -87 52q-104 0 -104 -159t104 -159q63 0 87 52
q16 35 16 107z" />
    <glyph glyph-name="h" unicode="h" horiz-adv-x="566" 
d="M490 0h-102v311q0 50 -26.5 80.5t-75.5 30.5q-50 0 -76.5 -30t-26.5 -81v-311h-102v712h102v-256q53 57 131 57q82 0 129 -51.5t47 -134.5v-327z" />
    <glyph glyph-name="i" unicode="i" horiz-adv-x="264" 
d="M186 607h-108v108h108v-108zM183 0h-102v507h102v-507z" />
    <glyph glyph-name="j" unicode="j" horiz-adv-x="264" 
d="M186 607h-108v108h108v-108zM183 -67q0 -65 -37 -102.5t-102 -37.5h-63v87h45q55 0 55 59v568h102v-574z" />
    <glyph glyph-name="k" unicode="k" horiz-adv-x="548" 
d="M526 0h-126l-142 234l-75 -85v-149h-102v712h102v-439l197 234h124l-176 -199z" />
    <glyph glyph-name="l" unicode="l" horiz-adv-x="311" 
d="M280 0h-63q-65 0 -102 37.5t-37 102.5v572h102v-566q0 -59 55 -59h45v-87z" />
    <glyph glyph-name="m" unicode="m" horiz-adv-x="877" 
d="M801 0h-102v309q0 113 -102 113q-48 0 -76.5 -30t-28.5 -78v-314h-102v309q0 113 -102 113q-51 0 -78 -31t-27 -82v-309h-102v507h100v-51q51 57 135 57q97 0 144 -74q60 74 159 74q85 0 133.5 -51.5t48.5 -137.5v-324z" />
    <glyph glyph-name="n" unicode="n" horiz-adv-x="568" 
d="M492 0h-102v309q0 113 -102 113q-51 0 -78 -31t-27 -82v-309h-102v507h100v-51q53 57 135 57q85 0 132 -53q44 -50 44 -136v-324z" />
    <glyph glyph-name="o" unicode="o" horiz-adv-x="537" 
d="M480 254q0 -260 -212 -260q-211 0 -211 260q0 259 211 259q111 0 165 -77q47 -67 47 -182zM378 254q0 168 -110 168q-109 0 -109 -168q0 -169 109 -169q110 0 110 169z" />
    <glyph glyph-name="p" unicode="p" horiz-adv-x="553" 
d="M496 254q0 -119 -32 -179q-42 -81 -148 -81q-84 0 -133 58v-257h-102v712h100v-54q50 60 134 60q106 0 149 -80q32 -60 32 -179zM394 254q0 75 -16 113q-23 55 -89 55q-65 0 -90 -56q-16 -37 -16 -112q0 -169 106 -169q65 0 89 56q16 37 16 113z" />
    <glyph glyph-name="q" unicode="q" horiz-adv-x="553" 
d="M472 -205h-102v257q-49 -58 -133 -58q-106 0 -149 83q-31 60 -31 177q0 119 32 179q43 80 149 80q83 0 134 -60v54h100v-712zM370 254q0 75 -16 113q-23 55 -89 55q-65 0 -90 -56q-16 -37 -16 -112q0 -169 106 -169q65 0 89 56q16 37 16 113z" />
    <glyph glyph-name="r" unicode="r" horiz-adv-x="439" 
d="M437 465l-77 -77q-34 34 -76 34q-47 0 -74 -33t-27 -81v-308h-102v507h100v-55q44 61 135 61q71 0 121 -48z" />
    <glyph glyph-name="s" unicode="s" horiz-adv-x="499" 
d="M456 155q0 -83 -67 -125q-57 -36 -144 -36q-139 0 -213 73l67 67q51 -53 146 -53q111 0 111 70q0 54 -68 60l-81 7q-74 6 -109 35q-41 33 -41 105q0 75 60 117q53 38 131 38q122 0 188 -57l-64 -65q-45 37 -125 37q-92 0 -92 -65q0 -52 70 -58l80 -7q151 0 151 -143z" />
    <glyph glyph-name="t" unicode="t" horiz-adv-x="342" 
d="M293 0h-61q-62 0 -100.5 39.5t-38.5 101.5v279h-58v78h58v154h102v-154h98v-78h-98v-274q0 -59 56 -59h42v-87z" />
    <glyph glyph-name="u" unicode="u" horiz-adv-x="568" 
d="M487 0h-100v51q-51 -57 -135 -57t-130 52t-46 137v324h102v-309q0 -51 26 -82t76 -31q51 0 78 30.5t27 82.5v309h102v-507z" />
    <glyph glyph-name="v" unicode="v" horiz-adv-x="471" 
d="M463 507l-186 -507h-83l-186 507h108l120 -357l119 357h108z" />
    <glyph glyph-name="w" unicode="w" horiz-adv-x="743" 
d="M735 507l-158 -507h-87l-119 354l-118 -354h-88l-157 507h108l98 -357l118 357h79l117 -357l98 357h109z" />
    <glyph glyph-name="x" unicode="x" horiz-adv-x="503" 
d="M481 0h-123l-106 173l-107 -173h-123l174 259l-167 248h123l100 -165l99 165h123l-166 -248z" />
    <glyph glyph-name="y" unicode="y" horiz-adv-x="468" 
d="M464 507l-224 -608q-37 -100 -141 -100h-41v92h26q54 0 73 54l28 79l-177 483h108l121 -357l118 357h109z" />
    <glyph glyph-name="z" unicode="z" horiz-adv-x="469" 
d="M421 0h-378v81l252 335h-238v91h364v-81l-254 -335h254v-91z" />
    <glyph glyph-name="braceleft" unicode="{" horiz-adv-x="407" 
d="M362 -74h-71q-143 0 -143 139v167q0 79 -66 79h-37v90h37q66 0 66 79v167q0 139 143 139h71v-91h-39q-45 0 -59 -16t-14 -62v-161q0 -70 -66 -100q66 -29 66 -100v-161q0 -53 20 -68q14 -10 53 -10h39v-91z" />
    <glyph glyph-name="bar" unicode="|" horiz-adv-x="338" 
d="M220 -74h-102v860h102v-860z" />
    <glyph glyph-name="braceright" unicode="}" horiz-adv-x="407" 
d="M362 311h-36q-67 0 -67 -79v-167q0 -139 -143 -139h-71v91h39q45 0 59 16t14 62v161q0 70 67 100q-67 29 -67 100v161q0 53 -20 68q-14 10 -53 10h-39v91h71q143 0 143 -139v-167q0 -79 67 -79h36v-90z" />
    <glyph glyph-name="asciitilde" unicode="~" horiz-adv-x="574" 
d="M531 280q-78 -78 -148 -78q-45 0 -112 33q-49 24 -79 24q-41 0 -85 -44l-64 64q78 78 147 78q44 0 111 -33q49 -24 80 -24q41 0 85 44z" />
    <glyph glyph-name="Adieresis" unicode="&#xc4;" horiz-adv-x="625" 
d="M617 0h-115l-49 143h-281l-49 -143h-115l261 712h87zM423 235l-108 316l-111 -316h219zM464 786h-92v108h92v-108zM248 786h-92v108h92v-108z" />
    <glyph glyph-name="Aring" unicode="&#xc5;" horiz-adv-x="625" 
d="M617 0h-115l-49 143h-281l-49 -143h-115l261 712h87zM423 235l-108 316l-111 -316h219zM435 875q0 -52 -36.5 -88.5t-88.5 -36.5t-88.5 36.5t-36.5 88.5q0 51 37 88t88 37t88 -37t37 -88zM374 875q0 26 -19 44.5t-45 18.5t-45 -18.5t-19 -44.5q0 -27 18.5 -45t45.5 -18
q26 0 45 18.5t19 44.5z" />
    <glyph glyph-name="Ccedilla" unicode="&#xc7;" horiz-adv-x="628" 
d="M378 -1v-109h-102v108q-77 12 -132 63t-69 127q-8 43 -8 168t8 168q13 70 61 118q76 76 187 76q103 0 169 -58.5t85 -160.5h-110q-29 122 -144 122q-126 0 -145 -149q-3 -24 -3 -116q0 -90 3 -116q17 -149 145 -149q115 0 145 122h108q-30 -180 -198 -214z" />
    <glyph glyph-name="Eacute" unicode="&#xc9;" horiz-adv-x="603" 
d="M548 0h-455v712h455v-97h-347v-208h296v-96h-296v-214h347v-97zM447 943l-111 -162h-77l75 162h113z" />
    <glyph glyph-name="Ntilde" unicode="&#xd1;" horiz-adv-x="721" 
d="M629 0h-99l-329 501v-501h-108v712h99l329 -500v500h108v-712zM530 849q-55 -55 -104 -55q-27 0 -70.5 21t-60.5 21q-26 0 -58 -30l-48 47q55 55 104 55q34 0 75 -24q33 -19 55 -19q27 0 59 31z" />
    <glyph glyph-name="Odieresis" unicode="&#xd6;" horiz-adv-x="647" 
d="M579 356q0 -125 -8 -168q-13 -70 -60 -118q-74 -76 -188 -76q-112 0 -187 76q-48 48 -61 118q-8 43 -8 168t8 168q13 70 61 118q76 76 187 76t188 -76q48 -47 60 -118q8 -47 8 -168zM471 356v63q0 36 -3 53q-13 149 -145 149q-128 0 -145 -149q-3 -26 -3 -116
q0 -97 2 -116q16 -149 146 -149t145 149q3 30 3 116zM477 786h-92v108h92v-108zM261 786h-92v108h92v-108z" />
    <glyph glyph-name="Udieresis" unicode="&#xdc;" horiz-adv-x="675" 
d="M593 240q0 -110 -73 -178t-183 -68q-111 0 -183 67.5t-72 178.5v472h108v-467q0 -70 39 -112t108 -42q68 0 108 42.5t40 111.5v467h108v-472zM492 786h-92v108h92v-108zM276 786h-92v108h92v-108z" />
    <glyph glyph-name="aacute" unicode="&#xe1;" horiz-adv-x="530" 
d="M454 0h-100v46q-52 -52 -135 -52q-80 0 -126 37q-50 40 -50 118q0 72 53 111q47 35 122 35h134v36q0 95 -111 95q-72 0 -111 -49l-67 63q62 73 182 73q209 0 209 -174v-339zM352 183v41h-119q-91 0 -91 -73q0 -72 93 -72q60 0 88.5 23t28.5 81zM393 761l-111 -162h-77
l75 162h113z" />
    <glyph glyph-name="agrave" unicode="&#xe0;" horiz-adv-x="530" 
d="M454 0h-100v46q-52 -52 -135 -52q-80 0 -126 37q-50 40 -50 118q0 72 53 111q47 35 122 35h134v36q0 95 -111 95q-72 0 -111 -49l-67 63q62 73 182 73q209 0 209 -174v-339zM352 183v41h-119q-91 0 -91 -73q0 -72 93 -72q60 0 88.5 23t28.5 81zM309 599h-77l-111 162h113
z" />
    <glyph glyph-name="acircumflex" unicode="&#xe2;" horiz-adv-x="530" 
d="M454 0h-100v46q-52 -52 -135 -52q-80 0 -126 37q-50 40 -50 118q0 72 53 111q47 35 122 35h134v36q0 95 -111 95q-72 0 -111 -49l-67 63q62 73 182 73q209 0 209 -174v-339zM352 183v41h-119q-91 0 -91 -73q0 -72 93 -72q60 0 88.5 23t28.5 81zM429 599h-85l-87 97
l-87 -97h-85l129 161h86z" />
    <glyph glyph-name="adieresis" unicode="&#xe4;" horiz-adv-x="530" 
d="M454 0h-100v46q-52 -52 -135 -52q-80 0 -126 37q-50 40 -50 118q0 72 53 111q47 35 122 35h134v36q0 95 -111 95q-72 0 -111 -49l-67 63q62 73 182 73q209 0 209 -174v-339zM352 183v41h-119q-91 0 -91 -73q0 -72 93 -72q60 0 88.5 23t28.5 81zM411 604h-92v108h92v-108z
M195 604h-92v108h92v-108z" />
    <glyph glyph-name="atilde" unicode="&#xe3;" horiz-adv-x="530" 
d="M454 0h-100v46q-52 -52 -135 -52q-80 0 -126 37q-50 40 -50 118q0 72 53 111q47 35 122 35h134v36q0 95 -111 95q-72 0 -111 -49l-67 63q62 73 182 73q209 0 209 -174v-339zM352 183v41h-119q-91 0 -91 -73q0 -72 93 -72q60 0 88.5 23t28.5 81zM426 667q-55 -55 -104 -55
q-27 0 -70.5 21t-60.5 21q-26 0 -58 -30l-48 47q55 55 104 55q34 0 75 -24q33 -19 55 -19q27 0 59 31z" />
    <glyph glyph-name="aring" unicode="&#xe5;" horiz-adv-x="530" 
d="M454 0h-100v46q-52 -52 -135 -52q-80 0 -126 37q-50 40 -50 118q0 72 53 111q47 35 122 35h134v36q0 95 -111 95q-72 0 -111 -49l-67 63q62 73 182 73q209 0 209 -174v-339zM352 183v41h-119q-91 0 -91 -73q0 -72 93 -72q60 0 88.5 23t28.5 81zM382 701
q0 -52 -36.5 -88.5t-88.5 -36.5t-88.5 36.5t-36.5 88.5q0 51 37 88t88 37t88 -37t37 -88zM321 701q0 26 -19 44.5t-45 18.5t-45 -18.5t-19 -44.5q0 -27 18.5 -45t45.5 -18q26 0 45 18.5t19 44.5z" />
    <glyph glyph-name="ccedilla" unicode="&#xe7;" horiz-adv-x="485" 
d="M332 -1v-109h-101l-1 108q-125 24 -162 153q-13 45 -13 103q0 116 55 184q59 75 171 75q99 0 167 -71l-70 -68q-44 48 -97 48q-124 0 -124 -168q0 -169 124 -169q52 0 97 48l70 -67q-51 -54 -116 -67z" />
    <glyph glyph-name="eacute" unicode="&#xe9;" horiz-adv-x="539" 
d="M485 224h-329q0 -64 33 -103t96 -39q71 0 123 52l65 -61q-79 -79 -190 -79q-228 0 -228 260q0 112 50 181q56 78 165 78q103 0 161 -72q54 -66 54 -172v-45zM384 295q0 38 -14 69q-29 64 -100 64q-56 0 -87 -39q-27 -36 -27 -94h228zM409 761l-111 -162h-77l75 162h113z
" />
    <glyph glyph-name="egrave" unicode="&#xe8;" horiz-adv-x="539" 
d="M485 224h-329q0 -64 33 -103t96 -39q71 0 123 52l65 -61q-79 -79 -190 -79q-228 0 -228 260q0 112 50 181q56 78 165 78q103 0 161 -72q54 -66 54 -172v-45zM384 295q0 38 -14 69q-29 64 -100 64q-56 0 -87 -39q-27 -36 -27 -94h228zM325 599h-77l-111 162h113z" />
    <glyph glyph-name="ecircumflex" unicode="&#xea;" horiz-adv-x="539" 
d="M485 224h-329q0 -64 33 -103t96 -39q71 0 123 52l65 -61q-79 -79 -190 -79q-228 0 -228 260q0 112 50 181q56 78 165 78q103 0 161 -72q54 -66 54 -172v-45zM384 295q0 38 -14 69q-29 64 -100 64q-56 0 -87 -39q-27 -36 -27 -94h228zM445 599h-85l-87 97l-87 -97h-85
l129 161h86z" />
    <glyph glyph-name="edieresis" unicode="&#xeb;" horiz-adv-x="539" 
d="M485 224h-329q0 -64 33 -103t96 -39q71 0 123 52l65 -61q-79 -79 -190 -79q-228 0 -228 260q0 112 50 181q56 78 165 78q103 0 161 -72q54 -66 54 -172v-45zM384 295q0 38 -14 69q-29 64 -100 64q-56 0 -87 -39q-27 -36 -27 -94h228zM427 604h-92v108h92v-108zM211 604
h-92v108h92v-108z" />
    <glyph glyph-name="iacute" unicode="&#xed;" horiz-adv-x="264" 
d="M183 0h-102v507h102v-507zM255 761l-111 -162h-77l75 162h113z" />
    <glyph glyph-name="igrave" unicode="&#xec;" horiz-adv-x="264" 
d="M183 0h-102v507h102v-507zM204 599h-77l-111 162h113z" />
    <glyph glyph-name="icircumflex" unicode="&#xee;" horiz-adv-x="264" 
d="M183 0h-102v507h102v-507zM303 599h-85l-87 97l-87 -97h-85l129 161h86z" />
    <glyph glyph-name="idieresis" unicode="&#xef;" horiz-adv-x="264" 
d="M183 0h-102v507h102v-507zM285 604h-92v108h92v-108zM69 604h-92v108h92v-108z" />
    <glyph glyph-name="ntilde" unicode="&#xf1;" horiz-adv-x="568" 
d="M492 0h-102v309q0 113 -102 113q-51 0 -78 -31t-27 -82v-309h-102v507h100v-51q53 57 135 57q85 0 132 -53q44 -50 44 -136v-324zM456 667q-55 -55 -104 -55q-27 0 -70.5 21t-60.5 21q-26 0 -58 -30l-48 47q55 55 104 55q34 0 75 -24q33 -19 55 -19q27 0 59 31z" />
    <glyph glyph-name="oacute" unicode="&#xf3;" horiz-adv-x="537" 
d="M480 254q0 -260 -212 -260q-211 0 -211 260q0 259 211 259q111 0 165 -77q47 -67 47 -182zM378 254q0 168 -110 168q-109 0 -109 -168q0 -169 109 -169q110 0 110 169zM404 761l-111 -162h-77l75 162h113z" />
    <glyph glyph-name="ograve" unicode="&#xf2;" horiz-adv-x="537" 
d="M480 254q0 -260 -212 -260q-211 0 -211 260q0 259 211 259q111 0 165 -77q47 -67 47 -182zM378 254q0 168 -110 168q-109 0 -109 -168q0 -169 109 -169q110 0 110 169zM313 599h-77l-111 162h113z" />
    <glyph glyph-name="ocircumflex" unicode="&#xf4;" horiz-adv-x="537" 
d="M480 254q0 -260 -212 -260q-211 0 -211 260q0 259 211 259q111 0 165 -77q47 -67 47 -182zM378 254q0 168 -110 168q-109 0 -109 -168q0 -169 109 -169q110 0 110 169zM440 599h-85l-87 97l-87 -97h-85l129 161h86z" />
    <glyph glyph-name="odieresis" unicode="&#xf6;" horiz-adv-x="537" 
d="M480 254q0 -260 -212 -260q-211 0 -211 260q0 259 211 259q111 0 165 -77q47 -67 47 -182zM378 254q0 168 -110 168q-109 0 -109 -168q0 -169 109 -169q110 0 110 169zM422 604h-92v108h92v-108zM206 604h-92v108h92v-108z" />
    <glyph glyph-name="otilde" unicode="&#xf5;" horiz-adv-x="537" 
d="M480 254q0 -260 -212 -260q-211 0 -211 260q0 259 211 259q111 0 165 -77q47 -67 47 -182zM378 254q0 168 -110 168q-109 0 -109 -168q0 -169 109 -169q110 0 110 169zM437 667q-55 -55 -104 -55q-27 0 -70.5 21t-60.5 21q-26 0 -58 -30l-48 47q55 55 104 55q34 0 75 -24
q33 -19 55 -19q27 0 59 31z" />
    <glyph glyph-name="uacute" unicode="&#xfa;" horiz-adv-x="568" 
d="M487 0h-100v51q-51 -57 -135 -57t-130 52t-46 137v324h102v-309q0 -51 26 -82t76 -31q51 0 78 30.5t27 82.5v309h102v-507zM417 761l-111 -162h-77l75 162h113z" />
    <glyph glyph-name="ugrave" unicode="&#xf9;" horiz-adv-x="568" 
d="M487 0h-100v51q-51 -57 -135 -57t-130 52t-46 137v324h102v-309q0 -51 26 -82t76 -31q51 0 78 30.5t27 82.5v309h102v-507zM333 599h-77l-111 162h113z" />
    <glyph glyph-name="ucircumflex" unicode="&#xfb;" horiz-adv-x="568" 
d="M487 0h-100v51q-51 -57 -135 -57t-130 52t-46 137v324h102v-309q0 -51 26 -82t76 -31q51 0 78 30.5t27 82.5v309h102v-507zM453 599h-85l-87 97l-87 -97h-85l129 161h86z" />
    <glyph glyph-name="udieresis" unicode="&#xfc;" horiz-adv-x="568" 
d="M487 0h-100v51q-51 -57 -135 -57t-130 52t-46 137v324h102v-309q0 -51 26 -82t76 -31q51 0 78 30.5t27 82.5v309h102v-507zM435 604h-92v108h92v-108zM219 604h-92v108h92v-108z" />
    <glyph glyph-name="dagger" unicode="&#x2020;" horiz-adv-x="591" 
d="M526 427h-180v-427h-102v427h-179v91h179v194h102v-194h180v-91z" />
    <glyph glyph-name="degree" unicode="&#xb0;" horiz-adv-x="471" 
d="M410 549q0 -73 -51 -123.5t-124 -50.5q-72 0 -123 51t-51 123q0 73 51 124t123 51t123.5 -51.5t51.5 -123.5zM326 549q0 39 -26 66t-65 27q-38 0 -64 -27.5t-26 -65.5q0 -39 25.5 -65.5t64.5 -26.5t65 26.5t26 65.5z" />
    <glyph glyph-name="cent" unicode="&#xa2;" horiz-adv-x="498" 
d="M459 184q-59 -62 -141 -74v-110h-80v111q-92 16 -140 90q-43 66 -43 165t43 165q47 73 140 90v91h80v-90q82 -9 141 -74l-68 -66q-36 41 -82 48v-328q44 6 82 48zM247 204v324q-49 -8 -72 -63q-18 -42 -18 -99q0 -144 90 -162z" />
    <glyph glyph-name="sterling" unicode="&#xa3;" horiz-adv-x="564" 
d="M516 0h-411v313h-62v78h62v96q0 105 66 168t172 63q102 0 173 -69l-72 -71q-43 43 -101 43q-63 0 -96 -39t-33 -103v-88h129v-78h-129v-216h302v-97z" />
    <glyph glyph-name="section" unicode="&#xa7;" horiz-adv-x="543" 
d="M472 264q0 -49 -26.5 -91.5t-70.5 -64.5q88 -39 88 -141q0 -81 -54.5 -129.5t-136.5 -48.5q-83 0 -136 43q-58 46 -58 127h100q0 -79 94 -79q41 0 66 22t25 62q0 65 -78 88l-70 21q-141 42 -141 186q0 104 97 156q-84 41 -84 134q0 78 55 125q51 44 131 44q129 0 174 -98
q14 -31 14 -67h-98q0 76 -90 76q-88 0 -88 -77q0 -59 75 -81l70 -21q142 -43 142 -186zM372 261q0 46 -27 77t-72 31q-48 0 -73.5 -29.5t-25.5 -78.5q0 -47 26.5 -77t72.5 -30q45 0 72 30.5t27 76.5z" />
    <glyph glyph-name="bullet" unicode="&#x2022;" horiz-adv-x="512" 
d="M419 334q0 -67 -48 -115t-115 -48q-66 0 -114.5 48.5t-48.5 114.5q0 67 48 115t115 48q68 0 115.5 -47.5t47.5 -115.5z" />
    <glyph glyph-name="paragraph" unicode="&#xb6;" horiz-adv-x="637" 
d="M544 -205h-102v820h-108v-820h-102v522q-81 0 -137.5 57t-56.5 139q0 95 67 149q61 50 158 50h281v-917z" />
    <glyph glyph-name="germandbls" unicode="&#xdf;" horiz-adv-x="565" 
d="M501 152q0 -152 -155 -152h-53v87h32q73 0 73 74v156q0 72 -70 72h-35v81h31q74 0 74 75q0 84 -106 84q-108 0 -108 -113v-516h-103v522q0 96 60 148q56 49 154 49q91 0 144 -39q61 -44 61 -132q0 -75 -62 -116q63 -32 63 -115v-165z" />
    <glyph glyph-name="registered" unicode="&#xae;" horiz-adv-x="862" 
d="M793 356q0 -152 -105 -257t-257 -105t-257 105t-105 257t105 257t257 105t257 -105t105 -257zM720 356q0 123 -83 209t-206 86q-125 0 -207.5 -85t-82.5 -210q0 -124 83 -209.5t207 -85.5t206.5 85.5t82.5 209.5zM588 161h-81l-80 155h-50v-155h-72v391h147
q54 0 90 -33.5t36 -86.5q0 -78 -77 -106zM507 432q0 25 -19 42t-45 17h-66v-118h66q27 0 45.5 16.5t18.5 42.5z" />
    <glyph glyph-name="copyright" unicode="&#xa9;" horiz-adv-x="862" 
d="M793 356q0 -152 -105 -257t-257 -105t-257 105t-105 257t105 257t257 105t257 -105t105 -257zM720 356q0 123 -83 208.5t-206 85.5q-124 0 -206.5 -85t-82.5 -209q0 -123 83 -208.5t206 -85.5q124 0 206.5 85t82.5 209zM568 208q-58 -52 -131 -52q-84 0 -133 59
q-46 55 -46 141q0 87 45 141q49 59 134 59q70 0 131 -52l-46 -47q-40 35 -85 35q-108 0 -108 -136t108 -136q46 0 85 35z" />
    <glyph glyph-name="trademark" unicode="&#x2122;" horiz-adv-x="883" 
d="M822 285h-77v279l-90 -179h-71l-90 179v-279h-77v427h77l125 -243l126 243h77v-427zM346 643h-115v-358h-76v358h-114v69h305v-69z" />
    <glyph glyph-name="acute" unicode="&#xb4;" horiz-adv-x="500" 
d="M386 761l-111 -162h-77l75 162h113z" />
    <glyph glyph-name="dieresis" unicode="&#xa8;" horiz-adv-x="500" 
d="M404 604h-92v108h92v-108zM188 604h-92v108h92v-108z" />
    <glyph glyph-name="notequal" unicode="&#x2260;" horiz-adv-x="571" 
d="M520 133h-303l-103 -120l-63 51l61 69h-61v95h138l88 99h-226v95h302l104 120l63 -51l-61 -69h61v-95h-138l-88 -99h226v-95z" />
    <glyph glyph-name="AE" unicode="&#xc6;" horiz-adv-x="952" 
d="M897 0h-455v162h-235l-84 -162h-118l374 712h518v-97h-347v-209h296v-97h-296v-212h347v-97zM442 254v361l-188 -361h188z" />
    <glyph glyph-name="Oslash" unicode="&#xd8;" horiz-adv-x="652" 
d="M579 356q0 -125 -8 -168q-13 -70 -60 -118q-74 -76 -188 -76q-62 0 -119 27l-31 -65h-82l51 108l-6 6q-48 48 -61 118q-8 43 -8 168t8 168q13 70 61 118q76 76 187 76q63 0 120 -27l30 65h83l-52 -108l7 -6q46 -39 60 -118q8 -45 8 -168zM403 599q-38 22 -80 22
q-127 0 -144 -149q-3 -26 -3 -116q0 -149 20 -190zM471 356q0 151 -20 190l-207 -433q37 -22 79 -22q130 0 145 149q3 30 3 116z" />
    <glyph glyph-name="infinity" unicode="&#x221e;" horiz-adv-x="830" 
d="M769 276q0 -78 -48.5 -126t-126.5 -48q-93 0 -179 99q-85 -100 -179 -100q-78 0 -126.5 48.5t-48.5 126.5t48.5 126.5t126.5 48.5q92 0 179 -100q85 100 179 100q79 0 127 -48t48 -127zM671 274q0 34 -22.5 56t-56.5 22q-28 0 -56 -22q-14 -11 -53 -56q27 -30 37 -41
q37 -38 72 -38t57 22t22 57zM347 274q-36 42 -53 56q-28 23 -57 23q-34 0 -56 -22.5t-22 -56.5q0 -35 21.5 -57t56.5 -22q29 0 57 23q17 14 53 56z" />
    <glyph glyph-name="plusminus" unicode="&#xb1;" 
d="M482 316h-168v-169h-95v169h-168v95h168v168h95v-168h168v-95zM482 0h-431v95h431v-95z" />
    <glyph glyph-name="lessequal" unicode="&#x2264;" horiz-adv-x="1027" 
d="M873 -14l-68 -69l-526 527v-487l-92 92v554h555l92 -92l-487 1z" />
    <glyph glyph-name="greaterequal" unicode="&#x2265;" horiz-adv-x="1027" 
d="M839 49l-92 -92l1 487l-526 -527l-69 69l527 527l-487 -2l92 92h554v-554z" />
    <glyph glyph-name="yen" unicode="&#xa5;" horiz-adv-x="544" 
d="M538 712l-146 -290h87v-78h-127l-26 -51v-52h153v-78h-153v-163h-108v163h-153v78h153v52l-26 51h-127v78h87l-147 290h118l150 -314l148 314h117z" />
    <glyph glyph-name="mu" unicode="&#x3bc;" horiz-adv-x="569" 
d="M487 0h-100v51q-51 -57 -134 -57q-46 0 -75 25v-224h-102v712h102v-309q0 -51 26.5 -82t76.5 -31t77 31t27 82v309h102v-507z" />
    <glyph glyph-name="partialdiff" unicode="&#x2202;" horiz-adv-x="549" 
d="M468 249q0 -113 -44 -178q-52 -77 -159 -77q-204 0 -204 255t198 255q68 0 107 -42v47q0 56 -31.5 89t-87.5 33q-63 0 -110 -44l-64 64q73 67 178 67q104 0 160.5 -61t56.5 -166v-242zM366 249q0 164 -101 164q-102 0 -102 -164t102 -164q101 0 101 164z" />
    <glyph glyph-name="product" unicode="&#x220f;" horiz-adv-x="690" 
d="M598 -205h-109v869h-288v-869h-108v965h505v-965z" />
    <glyph glyph-name="pi" unicode="&#x3c0;" horiz-adv-x="591" 
d="M503 0h-100v412h-214v-412h-101v507h415v-507z" />
    <glyph glyph-name="integral" unicode="&#x222b;" horiz-adv-x="433" 
d="M385 633h-44q-72 0 -72 -74v-599q0 -75 -44.5 -118.5t-119.5 -43.5h-57v87h44q71 0 71 74v599q0 75 45 118.5t120 43.5h57v-87z" />
    <glyph glyph-name="ordfeminine" unicode="&#xaa;" horiz-adv-x="452" 
d="M379 307h-81v36q-40 -40 -106 -40q-140 0 -140 123q0 58 42 89q37 28 97 28h105v28q0 74 -87 74q-55 0 -87 -39l-55 52q49 58 146 58q166 0 166 -139v-270zM296 453v32h-93q-70 0 -70 -57q0 -55 71 -55q48 0 70 17.5t22 62.5z" />
    <glyph glyph-name="ordmasculine" unicode="&#xba;" horiz-adv-x="458" 
d="M398 510q0 -91 -38 -145q-43 -62 -131 -62q-168 0 -168 207q0 90 38 144q43 62 130 62q88 0 131 -61q38 -54 38 -145zM314 510q0 60 -13 89q-20 43 -72 43q-85 0 -85 -132q0 -133 85 -133q53 0 72 44q13 29 13 89z" />
    <glyph glyph-name="Omega" unicode="&#x3a9;" horiz-adv-x="647" 
d="M579 0h-207v87q63 31 83 82q16 41 16 182v64q0 27 -3 54q-17 152 -145 152q-126 0 -144 -152q-3 -25 -3 -118q0 -119 8 -153q18 -76 90 -111v-87h-207v96h70q-29 26 -45 61q-25 55 -25 199q0 125 8 168q13 70 61 118q76 76 187 76t188 -76q48 -47 60 -118q8 -47 8 -168
q0 -146 -24 -199q-15 -33 -46 -61h70v-96z" />
    <glyph glyph-name="ae" unicode="&#xe6;" horiz-adv-x="837" 
d="M782 224h-329q0 -64 33 -103t96 -39q71 0 123 52l65 -61q-79 -79 -190 -79q-119 0 -179 79q-63 -79 -182 -79q-80 0 -126 37q-50 40 -50 118q0 72 53 111q47 35 122 35h134v36q0 95 -111 95q-72 0 -111 -49l-67 63q62 73 182 73q124 0 172 -67q55 67 150 67
q103 0 161 -72q54 -66 54 -172v-45zM681 295q0 58 -27 93q-30 40 -87 40q-72 0 -100 -64q-14 -32 -14 -69h228zM352 183v41h-119q-91 0 -91 -73q0 -72 93 -72q60 0 88.5 23t28.5 81z" />
    <glyph glyph-name="oslash" unicode="&#xf8;" horiz-adv-x="537" 
d="M480 254q0 -260 -212 -260q-57 0 -104 25l-37 -63h-69l58 99q-59 61 -59 199q0 259 211 259q58 0 105 -25l37 63h69l-59 -98q60 -62 60 -199zM328 405q-26 17 -60 17q-109 0 -109 -168q0 -73 15 -109zM378 254q0 73 -15 109l-154 -260q26 -18 59 -18q110 0 110 169z" />
    <glyph glyph-name="questiondown" unicode="&#xbf;" horiz-adv-x="511" 
d="M291 398h-112v109h112v-109zM440 -19q0 -86 -57 -139t-143 -53t-142.5 53t-56.5 139q0 58 47 123l78 108q18 25 18 54v30h102v-36q0 -51 -35 -99l-77 -105q-31 -42 -31 -76q0 -43 27 -71t70 -28q44 0 71 28t27 72h102z" />
    <glyph glyph-name="exclamdown" unicode="&#xa1;" horiz-adv-x="332" 
d="M205 398h-112v109h112v-109zM211 -205h-124l22 500h80z" />
    <glyph glyph-name="logicalnot" unicode="&#xac;" 
d="M484 98h-95v141h-341v95h436v-236z" />
    <glyph glyph-name="radical" unicode="&#x221a;" horiz-adv-x="580" 
d="M550 615h-91l-202 -615h-84l-168 507h111l99 -313l163 518h172v-97z" />
    <glyph glyph-name="florin" unicode="&#x192;" horiz-adv-x="415" 
d="M385 630h-59q-56 0 -66 -59l-32 -180h101v-78h-115l-91 -518h-102l91 518h-82v78h96l33 185q11 62 56 101.5t107 39.5h63v-87z" />
    <glyph glyph-name="approxequal" unicode="&#x22f2;" horiz-adv-x="574" 
d="M531 380q-40 -40 -66 -55q-37 -22 -82 -22q-48 0 -112 32q-48 24 -79 24q-42 0 -85 -43l-64 64q39 39 66 55q37 22 81 22q47 0 111 -32q48 -24 80 -24q42 0 85 43zM531 178q-78 -78 -147 -78q-45 0 -112 33q-49 24 -79 24q-42 0 -86 -44l-64 64q78 78 148 78
q44 0 111 -33q49 -24 80 -24q41 0 85 44z" />
    <glyph glyph-name="Delta" horiz-adv-x="619" 
d="M613 0h-608l261 712h87zM472 92l-161 459l-162 -459h323z" />
    <glyph glyph-name="guillemotleft" unicode="&#xab;" horiz-adv-x="592" 
d="M520 42l-230 230l230 229v-123l-108 -106l108 -107v-123zM267 42l-230 230l230 229v-123l-107 -106l107 -107v-123z" />
    <glyph glyph-name="guillemotright" unicode="&#xbb;" horiz-adv-x="592" 
d="M556 272l-231 -230v123l107 107l-107 106v123zM303 272l-231 -230v123l108 107l-108 106v123z" />
    <glyph glyph-name="ellipsis" unicode="&#x2026;" horiz-adv-x="803" 
d="M725 0h-117v117h117v-117zM460 0h-117v117h117v-117zM195 0h-117v117h117v-117z" />
    <glyph glyph-name="Agrave" unicode="&#xc0;" horiz-adv-x="625" 
d="M617 0h-115l-49 143h-281l-49 -143h-115l261 712h87zM423 235l-108 316l-111 -316h219zM361 781h-77l-111 162h113z" />
    <glyph glyph-name="Atilde" unicode="&#xc3;" horiz-adv-x="625" 
d="M617 0h-115l-49 143h-281l-49 -143h-115l261 712h87zM423 235l-108 316l-111 -316h219zM478 849q-55 -55 -104 -55q-27 0 -70.5 21t-60.5 21q-26 0 -58 -30l-48 47q55 55 104 55q34 0 75 -24q33 -19 55 -19q27 0 59 31z" />
    <glyph glyph-name="Otilde" unicode="&#xd5;" horiz-adv-x="647" 
d="M579 356q0 -125 -8 -168q-13 -70 -60 -118q-74 -76 -188 -76q-112 0 -187 76q-48 48 -61 118q-8 43 -8 168t8 168q13 70 61 118q76 76 187 76t188 -76q48 -47 60 -118q8 -47 8 -168zM471 356v63q0 36 -3 53q-13 149 -145 149q-128 0 -145 -149q-3 -26 -3 -116
q0 -97 2 -116q16 -149 146 -149t145 149q3 30 3 116zM492 849q-55 -55 -104 -55q-27 0 -70.5 21t-60.5 21q-26 0 -58 -30l-48 47q55 55 104 55q34 0 75 -24q33 -19 55 -19q27 0 59 31z" />
    <glyph glyph-name="OE" unicode="&#x152;" horiz-adv-x="977" 
d="M922 0h-451v58q-55 -64 -150 -64q-111 0 -185 74q-47 47 -60 118q-9 49 -9 170q0 114 6 153q13 85 63 135q74 74 185 74q95 0 150 -64v58h450v-96h-342v-210h291v-94h-291v-216h343v-96zM471 356v63q0 36 -3 53q-13 149 -145 149q-127 0 -144 -149q-3 -26 -3 -116
q0 -97 2 -116q16 -149 145 -149q130 0 145 149q3 30 3 116z" />
    <glyph glyph-name="oe" unicode="&#x153;" horiz-adv-x="862" 
d="M807 224h-329q0 -64 33 -103t96 -39q71 0 123 52l65 -61q-79 -79 -189 -79q-117 0 -175 80q-51 -80 -163 -80q-211 0 -211 260q0 259 211 259q110 0 164 -81q53 81 160 81q103 0 161 -72q54 -66 54 -172v-45zM706 295q0 58 -27 93q-30 40 -87 40q-72 0 -100 -64
q-14 -32 -14 -69h228zM378 254q0 168 -110 168q-109 0 -109 -168q0 -169 109 -169q110 0 110 169z" />
    <glyph glyph-name="endash" unicode="&#x2013;" 
d="M482 230h-431v95h431v-95z" />
    <glyph glyph-name="emdash" unicode="&#x2014;" horiz-adv-x="972" 
d="M905 231h-838v97h838v-97z" />
    <glyph glyph-name="quotedblleft" unicode="&#x201c;" horiz-adv-x="459" 
d="M381 608h-112v104l112 93v-197zM190 608h-112v104l112 93v-197z" />
    <glyph glyph-name="quotedblright" unicode="&#x201d;" horiz-adv-x="459" 
d="M381 607l-112 -91v196h112v-105zM190 607l-112 -91v196h112v-105z" />
    <glyph glyph-name="quoteleft" unicode="&#x2018;" horiz-adv-x="268" 
d="M190 608h-112v104l112 93v-197z" />
    <glyph glyph-name="quoteright" unicode="&#x2019;" horiz-adv-x="268" 
d="M190 607l-112 -91v196h112v-105z" />
    <glyph glyph-name="divide" unicode="&#xf7;" 
d="M321 414h-109v109h109v-109zM484 230h-436v95h436v-95zM321 33h-109v109h109v-109z" />
    <glyph glyph-name="lozenge" unicode="&#x25ca;" horiz-adv-x="642" 
d="M582 346l-261 -365l-260 365l260 365zM467 346l-146 207l-146 -207l146 -208z" />
    <glyph glyph-name="ydieresis" unicode="&#xff;" horiz-adv-x="468" 
d="M464 507l-224 -608q-37 -100 -141 -100h-41v92h26q54 0 73 54l28 79l-177 483h108l121 -357l118 357h109zM389 604h-92v108h92v-108zM173 604h-92v108h92v-108z" />
    <glyph glyph-name="Ydieresis" unicode="&#x178;" horiz-adv-x="544" 
d="M539 712l-213 -419v-293h-108v293l-213 419h118l149 -313l149 313h118zM426 786h-92v108h92v-108zM210 786h-92v108h92v-108z" />
    <glyph glyph-name="daggerdbl" unicode="&#x2021;" horiz-adv-x="591" 
d="M526 -11h-180v-194h-102v194h-179v92h179v346h-179v91h179v194h102v-194h180v-91h-180v-346h180v-92z" />
    <glyph glyph-name="periodcentered" unicode="&#xb7;" horiz-adv-x="278" 
d="M200 217h-122v122h122v-122z" />
    <glyph glyph-name="periodcentered" unicode="&#x2219;" horiz-adv-x="278" 
d="M200 217h-122v122h122v-122z" />
    <glyph glyph-name="quotesinglbase" unicode="&#x201a;" horiz-adv-x="267" 
d="M190 0l-112 -92v197h112v-105z" />
    <glyph glyph-name="quotedblbase" unicode="&#x201e;" horiz-adv-x="460" 
d="M381 0l-112 -92v197h112v-105zM190 0l-112 -92v197h112v-105z" />
    <glyph glyph-name="perthousand" unicode="&#x2030;" horiz-adv-x="1196" 
d="M784 130q0 -62 -39 -99.5t-101 -37.5t-101 37.5t-39 99.5v101q0 62 39 99.5t101 37.5t101 -37.5t39 -99.5v-101zM629 712l-335 -712h-82l336 712h81zM338 481q0 -62 -39 -99t-101 -37q-61 0 -100.5 37.5t-39.5 98.5v101q0 62 39 99.5t101 37.5t101 -37.5t39 -99.5v-101z
M707 133v95q0 72 -63 72t-63 -72v-95q0 -72 63 -72t63 72zM261 484v95q0 72 -63 72t-63 -72v-95q0 -71 63 -71t63 71zM1138 130q0 -62 -39 -99.5t-101 -37.5t-101 37.5t-39 99.5v101q0 62 39 99.5t101 37.5t101 -37.5t39 -99.5v-101zM1061 133v95q0 72 -63 72t-63 -72v-95
q0 -72 63 -72t63 72z" />
    <glyph glyph-name="Acircumflex" unicode="&#xc2;" horiz-adv-x="625" 
d="M617 0h-115l-49 143h-281l-49 -143h-115l261 712h87zM423 235l-108 316l-111 -316h219zM482 781h-85l-87 97l-87 -97h-85l129 161h86z" />
    <glyph glyph-name="Ecircumflex" unicode="&#xca;" horiz-adv-x="603" 
d="M548 0h-455v712h455v-97h-347v-208h296v-96h-296v-214h347v-97zM483 781h-85l-87 97l-87 -97h-85l129 161h86z" />
    <glyph glyph-name="Aacute" unicode="&#xc1;" horiz-adv-x="625" 
d="M617 0h-115l-49 143h-281l-49 -143h-115l261 712h87zM423 235l-108 316l-111 -316h219zM446 943l-111 -162h-77l75 162h113z" />
    <glyph glyph-name="Edieresis" unicode="&#xcb;" horiz-adv-x="603" 
d="M548 0h-455v712h455v-97h-347v-208h296v-96h-296v-214h347v-97zM465 786h-92v108h92v-108zM249 786h-92v108h92v-108z" />
    <glyph glyph-name="Egrave" unicode="&#xc8;" horiz-adv-x="603" 
d="M548 0h-455v712h455v-97h-347v-208h296v-96h-296v-214h347v-97zM363 781h-77l-111 162h113z" />
    <glyph glyph-name="Iacute" unicode="&#xcd;" horiz-adv-x="294" 
d="M201 0h-108v712h108v-712zM269 943l-111 -162h-77l75 162h113z" />
    <glyph glyph-name="Icircumflex" unicode="&#xce;" horiz-adv-x="294" 
d="M201 0h-108v712h108v-712zM315 781h-85l-87 97l-87 -97h-85l129 161h86z" />
    <glyph glyph-name="Idieresis" unicode="&#xcf;" horiz-adv-x="294" 
d="M201 0h-108v712h108v-712zM300 786h-92v108h92v-108zM84 786h-92v108h92v-108z" />
    <glyph glyph-name="Igrave" unicode="&#xcc;" horiz-adv-x="294" 
d="M201 0h-108v712h108v-712zM216 781h-77l-111 162h113z" />
    <glyph glyph-name="Oacute" unicode="&#xd3;" horiz-adv-x="647" 
d="M579 356q0 -125 -8 -168q-13 -70 -60 -118q-74 -76 -188 -76q-112 0 -187 76q-48 48 -61 118q-8 43 -8 168t8 168q13 70 61 118q76 76 187 76t188 -76q48 -47 60 -118q8 -47 8 -168zM471 356v63q0 36 -3 53q-13 149 -145 149q-128 0 -145 -149q-3 -26 -3 -116
q0 -97 2 -116q16 -149 146 -149t145 149q3 30 3 116zM459 943l-111 -162h-77l75 162h113z" />
    <glyph glyph-name="Ocircumflex" unicode="&#xd4;" horiz-adv-x="647" 
d="M579 356q0 -125 -8 -168q-13 -70 -60 -118q-74 -76 -188 -76q-112 0 -187 76q-48 48 -61 118q-8 43 -8 168t8 168q13 70 61 118q76 76 187 76t188 -76q48 -47 60 -118q8 -47 8 -168zM471 356v63q0 36 -3 53q-13 149 -145 149q-128 0 -145 -149q-3 -26 -3 -116
q0 -97 2 -116q16 -149 146 -149t145 149q3 30 3 116zM495 781h-85l-87 97l-87 -97h-85l129 161h86z" />
    <glyph glyph-name="Ograve" unicode="&#xd2;" horiz-adv-x="647" 
d="M579 356q0 -125 -8 -168q-13 -70 -60 -118q-74 -76 -188 -76q-112 0 -187 76q-48 48 -61 118q-8 43 -8 168t8 168q13 70 61 118q76 76 187 76t188 -76q48 -47 60 -118q8 -47 8 -168zM471 356v63q0 36 -3 53q-13 149 -145 149q-128 0 -145 -149q-3 -26 -3 -116
q0 -97 2 -116q16 -149 146 -149t145 149q3 30 3 116zM375 781h-77l-111 162h113z" />
    <glyph glyph-name="Uacute" unicode="&#xda;" horiz-adv-x="675" 
d="M593 240q0 -110 -73 -178t-183 -68q-111 0 -183 67.5t-72 178.5v472h108v-467q0 -70 39 -112t108 -42q68 0 108 42.5t40 111.5v467h108v-472zM474 943l-111 -162h-77l75 162h113z" />
    <glyph glyph-name="Ucircumflex" unicode="&#xdb;" horiz-adv-x="675" 
d="M593 240q0 -110 -73 -178t-183 -68q-111 0 -183 67.5t-72 178.5v472h108v-467q0 -70 39 -112t108 -42q68 0 108 42.5t40 111.5v467h108v-472zM510 781h-85l-87 97l-87 -97h-85l129 161h86z" />
    <glyph glyph-name="Ugrave" unicode="&#xd9;" horiz-adv-x="675" 
d="M593 240q0 -110 -73 -178t-183 -68q-111 0 -183 67.5t-72 178.5v472h108v-467q0 -70 39 -112t108 -42q68 0 108 42.5t40 111.5v467h108v-472zM390 781h-77l-111 162h113z" />
    <glyph glyph-name="dotlessi" unicode="&#x131;" horiz-adv-x="264" 
d="M183 0h-102v507h102v-507z" />
    <glyph glyph-name="circumflex" unicode="&#x2c6;" horiz-adv-x="500" 
d="M422 599h-85l-87 97l-87 -97h-85l129 161h86z" />
    <glyph glyph-name="tilde" unicode="&#x2dc;" horiz-adv-x="500" 
d="M419 667q-55 -55 -104 -55q-27 0 -70.5 21t-60.5 21q-26 0 -58 -30l-48 47q55 55 104 55q34 0 75 -24q33 -19 55 -19q27 0 59 31z" />
    <glyph glyph-name="macron" unicode="&#xaf;" horiz-adv-x="500" 
d="M405 622h-310v73h310v-73z" />
    <glyph glyph-name="breve" unicode="&#x2d8;" horiz-adv-x="500" 
d="M415 735q0 -145 -164 -145q-166 0 -166 145h74q9 -71 92 -71q82 0 92 71h72z" />
    <glyph glyph-name="dotaccent" unicode="&#x2d9;" horiz-adv-x="500" 
d="M304 620h-108v91h108v-91z" />
    <glyph glyph-name="ring" unicode="&#x2da;" horiz-adv-x="500" 
d="M375 701q0 -52 -36.5 -88.5t-88.5 -36.5t-88.5 36.5t-36.5 88.5q0 51 37 88t88 37t88 -37t37 -88zM314 701q0 26 -19 44.5t-45 18.5t-45 -18.5t-19 -44.5q0 -27 18.5 -45t45.5 -18q26 0 45 18.5t19 44.5z" />
    <glyph glyph-name="cedilla" unicode="&#xb8;" horiz-adv-x="500" 
d="M319 -64l-51 -147h-101l70 147h82z" />
    <glyph glyph-name="ogonek" unicode="&#x2db;" horiz-adv-x="500" 
d="M329 -211h-101l-51 147h82z" />
    <glyph glyph-name="caron" unicode="&#x2c7;" horiz-adv-x="500" 
d="M422 760l-129 -161h-86l-129 161h85l87 -97l87 97h85z" />
    <glyph glyph-name="Lslash" unicode="&#x141;" horiz-adv-x="587" 
d="M557 0h-450v266l-69 -44v93l69 43v354h108v-286l141 89v-91l-141 -89v-238h342v-97z" />
    <glyph glyph-name="lslash" unicode="&#x142;" horiz-adv-x="326" 
d="M294 0h-63q-65 0 -102 37.5t-37 102.5v181l-59 -36v87l59 36v304h102v-242l70 43v-86l-70 -44v-237q0 -59 55 -59h45v-87z" />
    <glyph glyph-name="Scaron" unicode="&#x160;" horiz-adv-x="590" 
d="M538 203q0 -103 -79 -159q-70 -50 -177 -50q-159 0 -252 94l72 71q68 -68 182 -68q147 0 147 109q0 89 -106 104l-84 12q-187 27 -187 193q0 101 70 157q64 52 168 52q132 0 221 -81l-69 -68q-58 55 -155 55q-56 0 -91 -27q-39 -30 -39 -84q0 -83 107 -99l81 -12
q191 -28 191 -199zM464 942l-129 -161h-86l-129 161h85l87 -97l87 97h85z" />
    <glyph glyph-name="scaron" unicode="&#x161;" horiz-adv-x="499" 
d="M456 155q0 -83 -67 -125q-57 -36 -144 -36q-139 0 -213 73l67 67q51 -53 146 -53q111 0 111 70q0 54 -68 60l-81 7q-74 6 -109 35q-41 33 -41 105q0 75 60 117q53 38 131 38q122 0 188 -57l-64 -65q-45 37 -125 37q-92 0 -92 -65q0 -52 70 -58l80 -7q151 0 151 -143z
M421 760l-129 -161h-86l-129 161h85l87 -97l87 97h85z" />
    <glyph glyph-name="Zcaron" unicode="&#x17d;" horiz-adv-x="552" 
d="M504 0h-456v93l329 522h-315v97h442v-88l-331 -527h331v-97zM453 942l-129 -161h-86l-129 161h85l87 -97l87 97h85z" />
    <glyph glyph-name="zcaron" unicode="&#x17e;" horiz-adv-x="469" 
d="M421 0h-378v81l252 335h-238v91h364v-81l-254 -335h254v-91zM412 760l-129 -161h-86l-129 161h85l87 -97l87 97h85z" />
    <glyph glyph-name="minus" unicode="&#x2212;" 
d="M482 230h-431v95h431v-95z" />
    <glyph glyph-name="onesuperior" unicode="&#xb9;" horiz-adv-x="277" 
d="M204 285h-77v341l-87 -76v87l87 75h77v-427z" />
    <glyph glyph-name="twosuperior" unicode="&#xb2;" horiz-adv-x="350" 
d="M305 285h-260v69l161 186q22 25 22 52q0 55 -53 55t-53 -55h-77q0 57 36.5 90.5t93.5 33.5t93.5 -33.5t36.5 -90.5q0 -45 -46 -98l-121 -140h167v-69z" />
    <glyph glyph-name="threesuperior" unicode="&#xb3;" horiz-adv-x="362" 
d="M317 408q0 -58 -38 -93t-97 -35t-98 34t-39 92h77q0 -57 60 -57q58 0 58 61q0 60 -61 60h-11v66h11q56 0 56 55q0 56 -54 56t-54 -52h-76q0 55 37 88t93 33q57 0 93.5 -33t36.5 -89q0 -63 -50 -89q56 -29 56 -97z" />
    <glyph glyph-name="onehalf" unicode="&#xbd;" horiz-adv-x="827" 
d="M782 0h-259v69l160 186q22 26 22 52q0 55 -53 55t-53 -55h-76q0 57 36 90.5t93 33.5t93.5 -33.5t36.5 -90.5q0 -45 -46 -98l-121 -140h167v-69zM588 712l-335 -712h-81l335 712h81zM204 285h-77v341l-87 -76v87l87 75h77v-427z" />
    <glyph glyph-name="onequarter" unicode="&#xbc;" horiz-adv-x="808" 
d="M768 61h-40v-61h-74v61h-174v71l147 295h83l-147 -295h91v83h74v-83h40v-71zM596 712l-335 -712h-81l335 712h81zM204 285h-77v341l-87 -76v87l87 75h77v-427z" />
    <glyph glyph-name="threequarters" unicode="&#xbe;" horiz-adv-x="844" 
d="M804 61h-40v-61h-73v61h-174v71l146 295h84l-147 -295h91v83h73v-83h40v-71zM638 712l-335 -712h-81l335 712h81zM317 408q0 -58 -38 -93t-97 -35t-98 34t-39 92h77q0 -57 60 -57q58 0 58 61q0 60 -61 60h-11v66h11q56 0 56 55q0 56 -54 56t-54 -52h-76q0 55 37 88t93 33
q57 0 93.5 -33t36.5 -89q0 -63 -50 -89q56 -29 56 -97z" />
    <glyph glyph-name="Idotaccent" unicode="&#x130;" horiz-adv-x="294" 
d="M201 0h-108v712h108v-712zM93 897h109v-108h-109v108z" />
    <glyph glyph-name="c274" unicode="&#x2c9;" horiz-adv-x="0" 
d="M405 622h-310v73h310v-73z" />
    <glyph glyph-name="scedilla" unicode="&#x15f;" horiz-adv-x="499" 
d="M302 -2v-108h-102l1 106q-98 0 -169 71l67 67q51 -53 146 -53q111 0 111 70q0 54 -68 60l-81 7q-74 6 -109 35q-41 33 -41 105q0 75 60 117q53 38 131 38q122 0 188 -57l-64 -65q-45 37 -125 37q-92 0 -92 -65q0 -52 70 -58l80 -7q151 0 151 -142q0 -128 -154 -158z" />
    <glyph glyph-name="c275" unicode="&#x394;" horiz-adv-x="619" 
d="M613 0h-608l261 712h87zM472 92l-161 459l-162 -459h323z" />
    <glyph glyph-name="c275" unicode="&#x2206;" horiz-adv-x="619" 
d="M613 0h-608l261 712h87zM472 92l-161 459l-162 -459h323z" />
    <glyph glyph-name="gbreve" unicode="&#x11f;" horiz-adv-x="549" 
d="M468 3q0 -98 -59.5 -156t-157.5 -58q-106 0 -179 67l65 65q48 -45 110 -45q119 0 119 129v65q-49 -58 -131 -58q-178 0 -178 251q0 113 32 172q43 78 147 78q82 0 133 -60v54h99v-504zM366 263q0 71 -16 107q-23 52 -87 52q-104 0 -104 -159t104 -159q63 0 87 52
q16 35 16 107zM428 603h-310v73h310v-73z" />
    <glyph glyph-name="Gbreve" unicode="&#x11e;" horiz-adv-x="649" 
d="M583 276q0 -127 -65 -202q-69 -80 -195 -80q-112 0 -187 76q-48 48 -61 118q-8 43 -8 168t8 168q13 70 61 118q76 76 187 76q104 0 172 -59t87 -162h-109q-29 124 -150 124q-126 0 -145 -149q-3 -24 -3 -116q0 -90 3 -116q17 -149 145 -149q72 0 113 46q39 43 39 116v40
h-152v92h260v-109zM477 823h-310v73h310v-73z" />
    <glyph glyph-name="Scedilla" unicode="&#x15e;" horiz-adv-x="590" 
d="M340 -2v-108h-102v106q-118 0 -208 92l72 71q68 -68 182 -68q147 0 147 109q0 89 -106 104l-84 12q-187 27 -187 193q0 101 70 157q64 52 168 52q132 0 221 -81l-69 -68q-58 55 -155 55q-56 0 -91 -27q-39 -30 -39 -84q0 -83 107 -99l81 -12q191 -28 191 -199
q0 -85 -58 -140q-53 -51 -140 -65z" />
    <glyph glyph-name="c277" unicode="&#xb5;" horiz-adv-x="569" 
d="M487 0h-100v51q-51 -57 -134 -57q-46 0 -75 25v-224h-102v712h102v-309q0 -51 26.5 -82t76.5 -31t77 31t27 82v309h102v-507z" />
    <glyph glyph-name="c279" unicode="-" horiz-adv-x="426" 
d="M359 230h-292v95h292v-95z" />
    <glyph glyph-name="c280" unicode="&#x2044;" horiz-adv-x="649" 
d="M583 276q0 -127 -65 -202q-69 -80 -195 -80q-112 0 -187 76q-48 48 -61 118q-8 43 -8 168t8 168q13 70 61 118q76 76 187 76q104 0 172 -59t87 -162h-109q-29 124 -150 124q-126 0 -145 -149q-3 -24 -3 -116q0 -90 3 -116q17 -149 145 -149q72 0 113 46q39 43 39 116v40
h-152v92h260v-109zM477 823h-310v73h310v-73z" />
    <glyph glyph-name="c281" unicode="&#x2126;" horiz-adv-x="647" 
d="M579 0h-207v87q63 31 83 82q16 41 16 182v64q0 27 -3 54q-17 152 -145 152q-126 0 -144 -152q-3 -25 -3 -118q0 -119 8 -153q18 -76 90 -111v-87h-207v96h70q-29 26 -45 61q-25 55 -25 199q0 125 8 168q13 70 61 118q76 76 187 76t188 -76q48 -47 60 -118q8 -47 8 -168
q0 -146 -24 -199q-15 -33 -46 -61h70v-96z" />
    <glyph glyph-name="c285" unicode="&#x2211;" horiz-adv-x="552" 
d="M508 -205h-460v88l195 406l-193 383v88h455v-97h-329l161 -325v-100l-164 -346h335v-97z" />
    <glyph glyph-name="c286" unicode="&#xad;" 
d="M482 230h-431v95h431v-95z" />
    <glyph glyph-name="c294" unicode="&#x2248;" horiz-adv-x="574" 
d="M531 380q-40 -40 -66 -55q-37 -22 -82 -22q-48 0 -112 32q-48 24 -79 24q-42 0 -85 -43l-64 64q39 39 66 55q37 22 81 22q47 0 111 -32q48 -24 80 -24q42 0 85 43zM531 178q-78 -78 -147 -78q-45 0 -112 33q-49 24 -79 24q-42 0 -86 -44l-64 64q78 78 148 78
q44 0 111 -33q49 -24 80 -24q41 0 85 44z" />
  </font>
</defs>
</svg>
